#!OML:ASF H:\LiuWeirdWalks\Patient Classification 1\Patient 1\Session 1\male.ASF
:FULLY-SPECIFIED
:DEGREES
484
root 2.01875 17.4625 26.8592 -0.668972 6.44151 -5.2825
lowerback 5.94201 4.07568 -0.254183
upperback -1.90881 5.38787 -0.674952
thorax -5.26405 2.66137 -1.11638
lowerneck -12.9415 -1.89234 -0.152695
upperneck 6.68764 -2.72218 2.2344
head 4.13235 -1.21328 0.515965
rclavicle 7.29392e-014 1.11319e-014
rhumerus -33.6794 -0.109823 -86.6701
rradius 35.523
rwrist 10.3217
rhand -22.4428 17.1452
rfingers 7.12502
rthumb 3.98119 -12.7973
lclavicle 7.29392e-014 1.11319e-014
lhumerus -51.0086 20.5521 68.0161
lradius 40.6084
lwrist 33.6657
lhand -27.9767 2.52896
lfingers 7.12502
lthumb -1.36344 32.5044
rfemur -1.81747 -9.57946 19.5916
rtibia 64.4489
rfoot 15.0355 -21.4299
rtoes 4.12657
lfemur -29.7363 -1.02844 -13.8768
ltibia 41.0647
lfoot -4.51108 6.18696
ltoes -13.2514
485
root 2.07101 17.5403 27.0115 -0.791712 5.78798 -5.31207
lowerback 5.97629 4.01386 0.135937
upperback -1.76091 5.34135 -0.572073
thorax -5.10316 2.62936 -1.21542
lowerneck -13.2452 -1.99272 -0.426935
upperneck 6.84126 -2.83499 2.45138
head 4.23729 -1.25948 0.615061
rclavicle 4.93293e-014 -1.59028e-015
rhumerus -34.0211 -1.03873 -86.4297
rradius 34.2687
rwrist 8.79581
rhand -22.8194 16.3626
rfingers 7.12502
rthumb 3.61747 -13.5864
lclavicle 4.93293e-014 -1.59028e-015
lhumerus -49.4944 18.8351 70.5363
lradius 41.2182
lwrist 33.7352
lhand -28.4001 2.53422
lfingers 7.12502
lthumb -1.7723 32.5066
rfemur -3.14666 -10.2824 19.3532
rtibia 65.1112
rfoot 13.2015 -21.0576
rtoes 3.70473
lfemur -28.3572 -0.65603 -13.9044
ltibia 40.2326
lfoot -4.58345 6.46406
ltoes -13.3497
486
root 2.11974 17.6126 27.164 -0.940149 5.11358 -5.37386
lowerback 6.02882 3.9618 0.548381
upperback -1.60981 5.30938 -0.463874
thorax -4.94823 2.60467 -1.32439
lowerneck -13.5359 -2.08931 -0.682804
upperneck 7.00787 -2.94307 2.64716
head 4.34412 -1.30382 0.704941
rclavicle 8.65428e-014 3.97569e-015
rhumerus -34.3738 -2.09454 -86.0577
rradius 33.0627
rwrist 6.9015
rhand -23.0917 15.3546
rfingers 7.12502
rthumb 3.3545 -14.5988
lclavicle 8.65428e-014 3.97569e-015
lhumerus -48.0262 16.9393 72.8664
lradius 41.8535
lwrist 33.6461
lhand -28.606 2.43796
lfingers 7.12502
lthumb -1.97118 32.4086
rfemur -4.41787 -10.8772 19.2377
rtibia 65.5789
rfoot 11.5152 -20.7614
rtoes 2.91731
lfemur -27.0094 -0.234252 -13.892
ltibia 39.4755
lfoot -4.67013 6.72593
ltoes -13.4757
487
root 2.16478 17.6781 27.314 -1.11311 4.4733 -5.46342
lowerback 6.07584 3.82097 0.76878
upperback -1.36928 5.14832 -0.231903
thorax -4.72929 2.52525 -1.18346
lowerneck -14.1204 -2.07995 -0.831225
upperneck 7.26033 -2.9107 2.6676
head 4.5184 -1.28342 0.731327
rclavicle 4.48508e-014 8.74653e-015
rhumerus -34.5337 -2.93262 -85.5693
rradius 31.8866
rwrist 4.78463
rhand -23.2676 14.1736
rfingers 7.12502
rthumb 3.18469 -15.7824
lclavicle 4.48508e-014 8.74653e-015
lhumerus -46.5853 15.2507 74.9951
lradius 42.5518
lwrist 33.2895
lhand -28.5271 2.21314
lfingers 7.12502
lthumb -1.89497 32.1845
rfemur -5.62782 -11.4255 19.2309
rtibia 65.8722
rfoot 9.91724 -20.5359
rtoes 1.92029
lfemur -25.7182 0.200455 -13.8469
ltibia 38.7972
lfoot -4.76521 6.95782
ltoes -13.5877
488
root 2.20385 17.737 27.4627 -1.29967 3.86763 -5.52216
lowerback 6.17473 3.69354 0.959852
upperback -1.17245 5.00132 -0.0359079
thorax -4.58442 2.45216 -1.07142
lowerneck -14.5336 -2.07583 -0.924394
upperneck 7.45086 -2.88989 2.65842
head 4.64494 -1.27125 0.740747
rclavicle -1.90088e-014 1.51076e-014
rhumerus -34.8053 -3.97436 -84.9429
rradius 30.7898
rwrist 2.68285
rhand -23.3947 12.8767
rfingers 7.12502
rthumb 3.06195 -17.081
lclavicle -1.90088e-014 1.51076e-014
lhumerus -45.2609 13.3374 76.8732
lradius 43.2815
lwrist 32.7451
lhand -28.1992 1.79152
lfingers 7.12502
lthumb -1.57826 31.7654
rfemur -6.78844 -11.9348 19.2762
rtibia 66.0194
rfoot 8.33678 -20.3659
rtoes 0.834655
lfemur -24.4812 0.650799 -13.822
ltibia 38.1967
lfoot -4.86596 7.1597
ltoes -13.7119
489
root 2.23592 17.7889 27.6088 -1.48219 3.30039 -5.5396
lowerback 6.2686 3.55718 1.01542
upperback -0.956556 4.8319 0.17671
thorax -4.43004 2.37194 -0.864472
lowerneck -14.9621 -2.05076 -0.976038
upperneck 7.62189 -2.84082 2.58962
head 4.76587 -1.24818 0.727414
rclavicle -1.46107e-014 6.36111e-015
rhumerus -35.0469 -5.06618 -84.1773
rradius 29.7574
rwrist 0.701269
rhand -23.5317 11.5115
rfingers 7.12502
rthumb 2.92962 -18.4482
lclavicle -1.46107e-014 6.36111e-015
lhumerus -43.9928 11.4065 78.5212
lradius 44.088
lwrist 32.0452
lhand -27.6096 1.19006
lfingers 7.12502
lthumb -1.00887 31.1674
rfemur -7.93541 -12.4222 19.369
rtibia 66.0449
rfoot 6.76023 -20.2573
rtoes -0.167344
lfemur -23.3218 1.12828 -13.823
ltibia 37.6691
lfoot -4.96857 7.31199
ltoes -13.8524
490
root 2.26217 17.8339 27.7522 -1.66778 2.78274 -5.54783
lowerback 6.42043 3.44555 1.08331
upperback -0.801736 4.69614 0.35297
thorax -4.36648 2.30615 -0.711669
lowerneck -15.1824 -2.05348 -1.03349
upperneck 7.73321 -2.82931 2.54369
head 4.83587 -1.24469 0.721014
rclavicle -1.11816e-015 0
rhumerus -35.4429 -6.39604 -83.2447
rradius 28.8262
rwrist -0.99486
rhand -23.6873 10.1322
rfingers 7.12502
rthumb 2.7793 -19.8295
lclavicle -1.11816e-015 0
lhumerus -42.8775 9.24148 79.9448
lradius 44.9551
lwrist 31.1822
lhand -26.9131 0.392824
lfingers 7.12502
lthumb -0.336157 30.3723
rfemur -9.05919 -12.9094 19.5329
rtibia 65.9493
rfoot 5.17197 -20.2199
rtoes -1.10355
lfemur -22.2377 1.61167 -13.8159
ltibia 37.2221
lfoot -5.07641 7.42711
ltoes -13.9772
491
root 2.28619 17.8727 27.8936 -1.83535 2.35402 -5.42216
lowerback 6.59903 3.3624 1.10353
upperback -0.710931 4.5919 0.438225
thorax -4.37978 2.25488 -0.633235
lowerneck -15.1772 -2.10594 -1.13221
upperneck 7.79803 -2.88378 2.56456
head 4.85795 -1.27262 0.73846
rclavicle -2.13072e-014 3.97569e-015
rhumerus -36.0126 -7.96953 -82.1363
rradius 27.9993
rwrist -2.35138
rhand -23.8873 8.74283
rfingers 7.12502
rthumb 2.58623 -21.2212
lclavicle -2.13072e-014 3.97569e-015
lhumerus -41.9158 6.90042 81.1345
lradius 45.8771
lwrist 30.0784
lhand -26.1354 -0.481021
lfingers 7.12502
lthumb 0.414931 29.4983
rfemur -10.1583 -13.4694 19.5748
rtibia 65.7381
rfoot 3.57307 -20.2187
rtoes -1.89072
lfemur -21.2349 2.04896 -13.9615
ltibia 36.8588
lfoot -5.19418 7.52594
ltoes -14.1311
492
root 2.30581 17.9048 28.034 -2.01307 1.92138 -5.36734
lowerback 6.8157 3.32382 1.23304
upperback -0.67129 4.55692 0.506679
thorax -4.45669 2.23416 -0.643673
lowerneck -14.9886 -2.20776 -1.28102
upperneck 7.81099 -3.00236 2.65238
head 4.83743 -1.33097 0.781137
rclavicle 1.44926e-014 -7.95139e-015
rhumerus -36.7392 -9.74236 -80.8452
rradius 27.2666
rwrist -3.31481
rhand -24.084 7.36474
rfingers 7.12502
rthumb 2.39624 -22.6015
lclavicle 1.44926e-014 -7.95139e-015
lhumerus -41.0781 4.45744 82.1052
lradius 46.8336
lwrist 28.7939
lhand -25.328 -1.33077
lfingers 7.12502
lthumb 1.1948 28.6456
rfemur -11.2232 -13.9791 19.771
rtibia 65.3993
rfoot 1.96536 -20.3787
rtoes -2.5523
lfemur -20.2923 2.49727 -14.0017
ltibia 36.5908
lfoot -5.34147 7.6137
ltoes -14.2872
493
root 2.32885 17.9306 28.1712 -2.17841 1.54983 -5.349
lowerback 7.00017 3.20704 1.33006
upperback -0.660569 4.41832 0.633219
thorax -4.5545 2.16332 -0.564229
lowerneck -14.6211 -2.22555 -1.33616
upperneck 7.75878 -3.01728 2.65093
head 4.76287 -1.34381 0.791792
rclavicle 2.32609e-014 -7.95139e-015
rhumerus -37.5204 -11.3005 -79.4536
rradius 26.6037
rwrist -3.89851
rhand -24.2419 5.98592
rfingers 7.12502
rthumb 2.24375 -23.982
lclavicle 2.32609e-014 -7.95139e-015
lhumerus -40.3941 2.33634 82.8049
lradius 47.8113
lwrist 27.2383
lhand -24.475 -2.04431
lfingers 7.12502
lthumb 2.01864 27.9259
rfemur -12.2567 -14.5452 20.0176
rtibia 64.9328
rfoot 0.377284 -20.6289
rtoes -3.1603
lfemur -19.4382 2.87088 -14.012
ltibia 36.4211
lfoot -5.5153 7.70852
ltoes -14.4754
494
root 2.34904 17.9517 28.3081 -2.31016 1.13093 -5.33982
lowerback 7.01902 2.97307 1.08057
upperback -0.693557 4.09989 0.921841
thorax -4.64331 2.01468 -0.0968872
lowerneck -13.8326 -2.03323 -1.15014
upperneck 7.56928 -2.77131 2.41721
head 4.56534 -1.24084 0.717184
rclavicle -5.95267e-014 2.38542e-015
rhumerus -38.3322 -12.2773 -78.0477
rradius 25.9832
rwrist -4.17187
rhand -24.3408 4.64125
rfingers 7.12502
rthumb 2.14819 -25.3277
lclavicle -5.95267e-014 2.38542e-015
lhumerus -39.9837 0.8602 83.1982
lradius 48.826
lwrist 25.4387
lhand -23.5913 -2.57268
lfingers 7.12502
lthumb 2.87205 27.3877
rfemur -13.3137 -15.0056 20.3586
rtibia 64.3514
rfoot -1.17369 -21.0468
rtoes -3.69655
lfemur -18.6754 3.23401 -13.9865
ltibia 36.3513
lfoot -5.72115 7.84055
ltoes -14.7287
495
root 2.36621 17.9677 28.443 -2.41504 0.662904 -5.40445
lowerback 6.93909 2.67095 0.619662
upperback -0.62754 3.67677 1.3673
thorax -4.59073 1.8234 0.671119
lowerneck -13.3135 -1.72449 -0.846672
upperneck 7.42114 -2.37008 2.01631
head 4.4193 -1.06485 0.580386
rclavicle 1.64036e-014 -1.03368e-014
rhumerus -38.817 -12.832 -76.6584
rradius 25.3567
rwrist -4.2077
rhand -24.3828 3.37793
rfingers 7.12502
rthumb 2.10764 -26.5914
lclavicle 1.64036e-014 -1.03368e-014
lhumerus -39.4378 -0.0360671 83.3863
lradius 49.8014
lwrist 23.3896
lhand -22.6364 -3.08949
lfingers 7.12502
lthumb 3.79421 26.8565
rfemur -14.3885 -15.3397 20.867
rtibia 63.6562
rfoot -2.67008 -21.6084
rtoes -4.1899
lfemur -17.9998 3.59279 -13.8553
ltibia 36.3689
lfoot -5.95376 8.00108
ltoes -15.0204
496
root 2.3819 17.9796 28.5756 -2.49165 0.189277 -5.4635
lowerback 6.85447 2.37977 0.118115
upperback -0.592508 3.2663 1.8212
thorax -4.55768 1.63901 1.46974
lowerneck -12.6721 -1.41495 -0.535984
upperneck 7.21616 -1.96548 1.60176
head 4.23867 -0.887202 0.437827
rclavicle -1.42876e-014 -4.17448e-015
rhumerus -39.3065 -13.2785 -75.21
rradius 24.7709
rwrist -4.0332
rhand -24.3597 2.22615
rfingers 7.12502
rthumb 2.12994 -27.743
lclavicle -1.42876e-014 -4.17448e-015
lhumerus -38.9211 -0.808707 83.4215
lradius 50.7316
lwrist 21.2673
lhand -21.6986 -3.90166
lfingers 7.12502
lthumb 4.69977 26.0262
rfemur -15.4768 -15.6056 21.4197
rtibia 62.8569
rfoot -4.06021 -22.2279
rtoes -4.57609
lfemur -17.3982 3.91164 -13.7271
ltibia 36.4498
lfoot -6.20226 8.19921
ltoes -15.3339
497
root 2.39744 17.9882 28.7066 -2.52909 -0.252839 -5.48387
lowerback 6.77795 2.15512 -0.299376
upperback -0.542208 2.94839 2.20496
thorax -4.49572 1.49686 2.14003
lowerneck -12.2025 -1.20163 -0.343651
upperneck 6.69493 -1.67421 1.25918
head 4.45081 -0.765475 0.361232
rclavicle -2.7628e-014 -2.5842e-015
rhumerus -39.736 -13.8446 -73.6953
rradius 24.2067
rwrist -3.72952
rhand -24.297 1.26627
rfingers 7.12502
rthumb 2.19049 -28.7022
lclavicle -2.7628e-014 -2.5842e-015
lhumerus -38.2652 -1.68069 83.3674
lradius 51.6123
lwrist 19.1704
lhand -20.8197 -4.92158
lfingers 7.12502
lthumb 5.54845 24.9858
rfemur -16.5727 -15.8519 21.9527
rtibia 61.9615
rfoot -5.3043 -22.8268
rtoes -4.76818
lfemur -16.8665 4.18325 -13.6547
ltibia 36.5621
lfoot -6.46332 8.42082
ltoes -15.6545
